<svg id="Layer_1" data-name="Layer 1" xmlns="http://www.w3.org/2000/svg" viewBox="0 0 525.01 350"><title>noun-battleship-4782846</title><path d="M332.59,288.74H297.5a8.75,8.75,0,0,0,0,17.5h35.09a8.75,8.75,0,0,0,0-17.5Z"/><path d="M253.84,288.74H218.75a8.75,8.75,0,0,0,0,17.5h35.09a8.75,8.75,0,0,0,0-17.5Z"/><path d="M175.09,288.74H140a8.75,8.75,0,0,0,0,17.5h35.09a8.75,8.75,0,1,0,0-17.5Z"/><path d="M96.34,288.74H61.25a8.75,8.75,0,0,0,0,17.5H96.34a8.75,8.75,0,1,0,0-17.5Z"/><path d="M332.59,288.74H297.5a8.75,8.75,0,0,0,0,17.5h35.09a8.75,8.75,0,0,0,0-17.5Z"/><path d="M253.84,288.74H218.75a8.75,8.75,0,0,0,0,17.5h35.09a8.75,8.75,0,0,0,0-17.5Z"/><path d="M175.09,288.74H140a8.75,8.75,0,0,0,0,17.5h35.09a8.75,8.75,0,1,0,0-17.5Z"/><path d="M96.34,288.74H61.25a8.75,8.75,0,0,0,0,17.5H96.34a8.75,8.75,0,1,0,0-17.5Z"/><path d="M332.59,288.74H297.5a8.75,8.75,0,0,0,0,17.5h35.09a8.75,8.75,0,0,0,0-17.5Z"/><path d="M253.84,288.74H218.75a8.75,8.75,0,0,0,0,17.5h35.09a8.75,8.75,0,0,0,0-17.5Z"/><path d="M175.09,288.74H140a8.75,8.75,0,0,0,0,17.5h35.09a8.75,8.75,0,1,0,0-17.5Z"/><path d="M96.34,288.74H61.25a8.75,8.75,0,0,0,0,17.5H96.34a8.75,8.75,0,1,0,0-17.5Z"/><path d="M523.43,187.42a8.64,8.64,0,0,0-7.18-3.67h-70V173.07l63.35-15.83h0a8.74,8.74,0,1,0-4.2-17L444,155.57h0a26.25,26.25,0,0,0-50.23,10.68v17.5h-22L325.06,98.44a29.48,29.48,0,0,0-25.2-19.69H297.5V70A26.15,26.15,0,0,0,280,45.32V8.75a8.75,8.75,0,0,0-17.5,0V45.32A26.15,26.15,0,0,0,245,70v8.75H227.5V27.12a8.75,8.75,0,0,0-17.5,0V78.75h-4.11a26,26,0,0,0-25,18.46L151.46,175H78.75a8.7,8.7,0,0,0-8,5.25L43,245H8.75A8.71,8.71,0,0,0,0,253.75v52.5A43.84,43.84,0,0,0,43.75,350H404.34a91.2,91.2,0,0,0,86.45-62.13l33.69-92.39h0a8.81,8.81,0,0,0-1.05-8.05ZM262.5,70A8.75,8.75,0,0,1,280,70v8.75H262.5Zm-28.18,61.25h88.81l9.54,17.5H229.94ZM201.25,210h35.08a8.75,8.75,0,1,1,0,17.5H201.25a8.75,8.75,0,0,1,0-17.5Zm-78.75,0h35.08a8.75,8.75,0,1,1,0,17.5H122.5a8.75,8.75,0,0,1,0-17.5Zm365.31,35H402.49a8.75,8.75,0,0,0,0,17.5h78.93l-7.18,19.6h0a73.68,73.68,0,0,1-69.91,50.4H43.74a26.32,26.32,0,0,1-26.25-26.25V262.5H271.24a8.2,8.2,0,0,0,5.77-2.28l64.4-57.05h0a19.25,19.25,0,0,1,8.57-1.92H503.73Z"/></svg>