<svg id="Layer_1" data-name="Layer 1" xmlns="http://www.w3.org/2000/svg" viewBox="0 0 447.06 218.75"><title>noun-battleship-3459634</title><path d="M369.38,78.75H431.6V61.25h-105a61.3,61.3,0,0,0-60.55,52.5h-5.82l-35-35H209.51l-17.5-35H160.35V17.5h-17.5V43.75H111.24l-5.83-17.5H72.85V0H55.35V26.25h-35v52.5H0l40,140H384.06l63-105H387.15a61,61,0,0,0-17.77-35Zm-42.78,0a43.82,43.82,0,0,1,42.87,35H283.74A43.81,43.81,0,0,1,326.6,78.75ZM181.19,61.25l8.75,17.5h-67l-5.83-17.5ZM37.85,43.75h55l11.67,35H37.85Zm336.29,157.5H53.2l-30-105H218l35,35H416.14Z"/><path d="M99.1,113.75A26.25,26.25,0,1,0,125.35,140,26.28,26.28,0,0,0,99.1,113.75Zm0,35a8.75,8.75,0,1,1,8.75-8.75A8.76,8.76,0,0,1,99.1,148.75Z"/><path d="M169.1,113.75A26.25,26.25,0,1,0,195.35,140,26.28,26.28,0,0,0,169.1,113.75Zm0,35a8.75,8.75,0,1,1,8.75-8.75A8.76,8.76,0,0,1,169.1,148.75Z"/><path d="M291.6,148.75h87.5v17.5H291.6Z"/><path d="M204.1,166.25h70v17.5h-70Z"/><path d="M55.35,52.5h17.5V70H55.35Z"/></svg>