<svg id="Layer_1" data-name="Layer 1" xmlns="http://www.w3.org/2000/svg" viewBox="0 0 456.28 317.85"><title>destroyer</title><path d="M449.8,305.41H437.51c8.14-24.54,11.5-61.73,11.89-66.24h0a6.8,6.8,0,0,0,.06-.9,43.75,43.75,0,0,0-11.65-29.77l13.46-13.43a6.21,6.21,0,1,0-8.75-8.75l-14.31,14.32A43.85,43.85,0,0,0,374,207.73V166.5a4.57,4.57,0,0,0,0-.74,44.12,44.12,0,0,0-14.74-33l12.93-12.93h0a6.2,6.2,0,0,0-8.75-8.75l-14.68,14.68a44.23,44.23,0,0,0-50.85,9.3V93.24A6.21,6.21,0,0,0,291.67,87h-9.31V68.88a26.21,26.21,0,1,0-12.41,0V87H243.7V6a6.22,6.22,0,0,0-12.42,0V87h-7a6.22,6.22,0,0,0-6.22,6.21v92.67H188.77a6.21,6.21,0,0,0-6.24,6.26v32.06a62.56,62.56,0,0,0-80-45.52L76.6,152.8a6.2,6.2,0,0,0-8.75,8.75l22.48,22.52a63.31,63.31,0,0,0-13.56,10.54L34.93,152.8a6.2,6.2,0,0,0-8.75,8.75L69,204.4a62.16,62.16,0,0,0-9.72,27.7H20.44a6.2,6.2,0,0,0-6.11,7.34c.32,1.67,7.08,37.1,28.24,66H6.47a6.22,6.22,0,1,0,0,12.42H449.8a6.24,6.24,0,0,0,6.48-6.21,6.22,6.22,0,0,0-6.48-6.21Zm-187.46-262A13.77,13.77,0,1,1,276.11,57.2a13.78,13.78,0,0,1-13.77-13.77ZM405.48,206.72a31.59,31.59,0,0,1,30.94,25.36H374.53a31.63,31.63,0,0,1,31-25.36ZM329.7,133.91a31.94,31.94,0,0,1,31.24,25.65H298.46a31.91,31.91,0,0,1,31.24-25.65ZM224.32,198.35a6.22,6.22,0,0,0,6.21-6.21V142.7h21.15a6.22,6.22,0,1,0,0-12.43H230.53V99.45h54.89v66.32h0a6.21,6.21,0,0,0,6.2,6.21h69.86v60.15H339.71a52.31,52.31,0,0,0-30.15-41.43V182a6.21,6.21,0,0,0-12.42,0v4.76a51.69,51.69,0,0,0-18.48,0v-4.84a6.21,6.21,0,1,0-12.41,0v8.75a52.23,52.23,0,0,0-30.14,41.43H195v-33.7Zm48.12,21.06a6.2,6.2,0,0,0,6.21-6.2V199.44a39.53,39.53,0,0,1,18.48,0v13.77a6.21,6.21,0,1,0,12.42,0v-8.42a39.81,39.81,0,0,1,17.62,27.34H248.63a39.77,39.77,0,0,1,17.63-27.34v8.42a6.2,6.2,0,0,0,6.21,6.2ZM99.52,193.27l14.88,14.8a6.21,6.21,0,1,0,8.75-8.75L112.76,188.9a50.88,50.88,0,0,1,8.8-.79,50.23,50.23,0,0,1,49.78,44H71.81a50.24,50.24,0,0,1,27.71-38.8ZM28.28,244.49H436.4c-1.41,13.28-5.19,43.11-12,60.92H58.5c-17.91-20.26-26.81-47.9-30.22-60.92Z"/><path d="M82,253.63H72.16a6.21,6.21,0,1,0,0,12.42H82a6.21,6.21,0,1,0,0-12.42Z"/><path d="M111.82,253.63H102a6.21,6.21,0,1,0,0,12.42h9.84a6.21,6.21,0,1,0,0-12.42Z"/><path d="M141.62,253.63h-9.84a6.21,6.21,0,0,0,0,12.42h9.84a6.21,6.21,0,1,0,0-12.42Z"/></svg>