<svg id="Layer_1" data-name="Layer 1" xmlns="http://www.w3.org/2000/svg" viewBox="0 0 515.2 235.13"><title>noun-warship-1597472</title><path d="M273.83,0a5.47,5.47,0,0,0-4.77,5.75v5.76c-6.54.4-12.3,1.39-17.46,2-11.11.8-17.46-1.19-27.38-4.56V43.26a68.35,68.35,0,0,0,28.38,3.57c5.55-.6,10.91-1.39,16.46-1.79V61.71h-12.3a5.75,5.75,0,0,0-4.56,5.56v39.09h-6.75a6,6,0,0,0-4.56,5.75v33.53H218.47V78.38a5.82,5.82,0,0,0-5.55-5.56c-11.12-.59-23.22,1.59-30.36,8.34-7.34,8.73-8.73,15.08-8.73,25.19h-6.75a6,6,0,0,0-4.56,5.76v33.53H140.1V123.22a5.68,5.68,0,0,0-5.56-5.55H118.27a29.49,29.49,0,0,0-16.67,4.76c-11.11-5.36-22.82-11.91-34.13-16.27a5.92,5.92,0,0,0-5.36,4.56,5.49,5.49,0,0,0,3.18,6.15l28.57,14.49a41.81,41.81,0,0,0-4.16,19v23.22H67.27V156.75a5.67,5.67,0,0,0-5.55-5.55H51a27.54,27.54,0,0,0-15.87,5.16c-9.92-5-19.65-13.1-29.77-16.47A5.53,5.53,0,0,0,.2,144.06,5.86,5.86,0,0,0,3,150.4l24,14.29a29.79,29.79,0,0,0-3.77,8.93H5.75A5.86,5.86,0,0,0,0,179.17C2,198,7.74,216.28,20.84,228.78c3.57,3.57,7.73,6.35,12.89,6.35H465.11a6.14,6.14,0,0,0,4.57-2.38L514.32,171c2.38-3.18-.4-8.53-4.56-8.73H448.05a37.43,37.43,0,0,0-3.77-8.73l28.77-14.29a5.62,5.62,0,0,0,3.18-6.35,6,6,0,0,0-5.56-4.36c-11.51,4.36-23,11.11-34.33,16.66a26.81,26.81,0,0,0-16.07-5.16H408.36a5.38,5.38,0,0,0-4.36,5.56v16.67H376c0-6.35,0-12.9-.2-19.25l30-14.88a5.85,5.85,0,0,0,3.18-6.35,5.74,5.74,0,0,0-5.56-4.37c-10.51,3.77-21,9.92-31.35,15.08a31.68,31.68,0,0,0-5-6.54,28.63,28.63,0,0,0-19.64-8.33H330.58V89.29C330.58,82,327,75,321.85,70A28.76,28.76,0,0,0,302,61.71H280.18V5.76C280.18,0,274.62,0,273.83,0Zm-4.76,22.62V33.93c-6.55.4-12.31,1.39-17.47,1.79-5.35.59-10.51-.2-16.27-1.59V23.61a65.08,65.08,0,0,0,17.27.8c5.55-.6,10.91-1.39,16.46-1.79Zm-5.76,50.2H302a17.33,17.33,0,0,1,11.9,5.36c3.38,3.18,5.56,7.54,5.56,11.12v17.06H263.31ZM207.36,84.13v22.23H184.94c-1-6.75,2.18-12.5,5.35-17.07,5.76-4.76,10.32-5.16,17.07-5.16Zm-33.54,33.54h33.54v28H173.82Zm78.38,0h67.27v56H252.2ZM118.26,128.78H129v16.87H101.2A27.23,27.23,0,0,1,105,134.73c2.58-3.77,6.16-5.95,13.3-5.95Zm212.32,0h16.87a17.69,17.69,0,0,1,11.9,5.36c3,2.78,4,6,5.16,9.13.4,6.35.2,12.7.2,19H350.82a6,6,0,0,0-3,2l-8.14,9.32h-9.13Zm84.53,22.42c6.74-.79,12.5,2.19,17.06,5.16a23,23,0,0,1,4.17,6H415.11ZM101,156.76H240.89v16.86H101Zm-50,5.55h5.16v11.31H34.92a20.43,20.43,0,0,1,4.17-6A17.69,17.69,0,0,1,51,162.31Zm303.39,11.31H498.83L462.13,224H33.73c-13.49-8.53-19.65-25.2-21.63-39.29h330a5,5,0,0,0,4.17-2Z"/></svg>