<svg id="Layer_1" data-name="Layer 1" xmlns="http://www.w3.org/2000/svg" viewBox="0 0 559.83 272.73"><title>noun-submarine-4375177</title><path d="M474.43,101.81H427.16V67.26A7.26,7.26,0,0,0,419.88,60H383.54V14.56H398.1A7.28,7.28,0,0,0,398.1,0H376.26A7.27,7.27,0,0,0,369,7.28V60H314.44a7.17,7.17,0,0,0-6.11,3.36l-24.75,38.47H196.72a90,90,0,0,0-20.44,2.4L54.82,133.34,39.71,85.12a7.3,7.3,0,0,0-7-5.1H7.28A7.27,7.27,0,0,0,0,87.3v140a7.27,7.27,0,0,0,7.28,7.29h40a7.32,7.32,0,0,0,7.16-5.94l3-16.24,70.45,33.21a286.42,286.42,0,0,0,121.52,27.16h225a85.46,85.46,0,0,0,0-170.92Zm-156-27.27h94.19v27.27H300.89ZM41.22,220H14.56V94.53H27.39l13.32,42.33a35.61,35.61,0,0,0-3.58,65.86l6.66,3.13Zm433.21,38.19h-225a271.85,271.85,0,0,1-115.3-25.82L43.34,189.56a21,21,0,0,1,4-39.48l132.27-31.7a73.21,73.21,0,0,1,17-2H474.32a70.9,70.9,0,0,1,.11,141.8Z"/><path d="M454.44,147.28a40,40,0,1,0,40,40A40,40,0,0,0,454.44,147.28Zm0,65.4a25.43,25.43,0,1,1,25.42-25.42A25.44,25.44,0,0,1,454.44,212.68Z"/><path d="M350.83,147.28a40,40,0,1,0,40,40A40,40,0,0,0,350.83,147.28Zm0,65.4a25.43,25.43,0,1,1,25.42-25.42A25.44,25.44,0,0,1,350.83,212.68Z"/><path d="M247.24,147.28a40,40,0,1,0,40,40A40,40,0,0,0,247.24,147.28Zm0,65.4a25.43,25.43,0,1,1,25.42-25.42A25.44,25.44,0,0,1,247.24,212.68Z"/></svg>